<svg width="202" height="36" viewBox="0 0 202 36" fill="none" xmlns="http://www.w3.org/2000/svg">
<path d="M0.968 1.4H6.248V15.56L12.968 1.4H18.248L11.96 13.736L18.344 35H12.824L8.36 20.024L6.248 24.296V35H0.968V1.4ZM33.2761 35.48C30.7161 35.48 28.7641 34.76 27.4201 33.32C26.0761 31.848 25.4041 29.752 25.4041 27.032V1.4H30.6841V27.416C30.6841 28.568 30.9081 29.4 31.3561 29.912C31.8361 30.424 32.5081 30.68 33.3721 30.68C34.2361 30.68 34.8921 30.424 35.3401 29.912C35.8201 29.4 36.0601 28.568 36.0601 27.416V1.4H41.1481V27.032C41.1481 29.752 40.4761 31.848 39.1321 33.32C37.7881 34.76 35.8361 35.48 33.2761 35.48ZM54.5566 20.696L48.1726 1.4H53.7886L57.3886 13.736H57.4846L61.0846 1.4H66.2206L59.8366 20.696V35H54.5566V20.696ZM85.8867 1.4H92.5107L97.6467 21.512H97.7427V1.4H102.447V35H97.0227L90.6867 10.472H90.5907V35H85.8867V1.4ZM118.659 35.48C116.099 35.48 114.147 34.76 112.803 33.32C111.459 31.848 110.787 29.752 110.787 27.032V9.368C110.787 6.648 111.459 4.568 112.803 3.128C114.147 1.656 116.099 0.919998 118.659 0.919998C121.219 0.919998 123.171 1.656 124.515 3.128C125.859 4.568 126.531 6.648 126.531 9.368V12.248H121.539V9.032C121.539 6.824 120.627 5.72 118.803 5.72C116.979 5.72 116.067 6.824 116.067 9.032V27.416C116.067 29.592 116.979 30.68 118.803 30.68C120.627 30.68 121.539 29.592 121.539 27.416V20.84H118.899V16.04H126.531V27.032C126.531 29.752 125.859 31.848 124.515 33.32C123.171 34.76 121.219 35.48 118.659 35.48ZM142.353 35.48C139.761 35.48 137.777 34.744 136.401 33.272C135.025 31.8 134.337 29.72 134.337 27.032V9.368C134.337 6.68 135.025 4.6 136.401 3.128C137.777 1.656 139.761 0.919998 142.353 0.919998C144.945 0.919998 146.929 1.656 148.305 3.128C149.681 4.6 150.369 6.68 150.369 9.368V27.032C150.369 29.72 149.681 31.8 148.305 33.272C146.929 34.744 144.945 35.48 142.353 35.48ZM142.353 30.68C144.177 30.68 145.089 29.576 145.089 27.368V9.032C145.089 6.824 144.177 5.72 142.353 5.72C140.529 5.72 139.617 6.824 139.617 9.032V27.368C139.617 29.576 140.529 30.68 142.353 30.68ZM158.74 1.4H166.516C169.14 1.4 171.108 2.104 172.42 3.512C173.732 4.92 174.388 6.984 174.388 9.704V13.016C174.388 15.736 173.732 17.8 172.42 19.208C171.108 20.616 169.14 21.32 166.516 21.32H164.02V35H158.74V1.4ZM166.516 16.52C167.38 16.52 168.02 16.28 168.436 15.8C168.884 15.32 169.108 14.504 169.108 13.352V9.368C169.108 8.216 168.884 7.4 168.436 6.92C168.02 6.44 167.38 6.2 166.516 6.2H164.02V16.52H166.516ZM182.055 1.4H187.335V35H182.055V1.4ZM196.09 1.4H201.37V35H196.09V1.4Z" fill="white"/>
</svg>
